<svg width="18" height="12" viewBox="0 0 18 12" fill="none" xmlns="http://www.w3.org/2000/svg">
<path d="M18 11C18 11.5523 17.5523 12 17 12L1 12C0.447716 12 3.91405e-08 11.5523 8.74228e-08 11L1.04907e-06 -1.57361e-06L18 0L18 11Z" fill="#F5F6FA"/>
<path fill-rule="evenodd" clip-rule="evenodd" d="M6.92875 4.1016C6.73349 3.90634 6.4169 3.90634 6.22164 4.1016L5.86809 4.45515C5.67282 4.65042 5.67282 4.967 5.86809 5.16226L8.69652 7.99069C8.89178 8.18595 9.20837 8.18595 9.40363 7.99069L9.75718 7.63713C9.95245 7.44187 9.95245 7.12529 9.75718 6.93003L6.92875 4.1016Z" fill="#333333"/>
<path fill-rule="evenodd" clip-rule="evenodd" d="M11.2265 4.0391C11.4218 3.84384 11.7384 3.84384 11.9336 4.0391L12.2872 4.39265C12.4824 4.58792 12.4824 4.9045 12.2872 5.09976L9.45876 7.92819C9.2635 8.12345 8.94691 8.12345 8.75165 7.92819L8.3981 7.57464C8.20284 7.37937 8.20284 7.06279 8.3981 6.86753L11.2265 4.0391Z" fill="#333333"/>
</svg>
