<svg width="18" height="12" viewBox="0 0 18 12" fill="none" xmlns="http://www.w3.org/2000/svg">
<path d="M0 1C0 0.447715 0.447715 0 1 0H17C17.5523 0 18 0.447715 18 1V12H0V1Z" fill="#F5F6FA"/>
<path fill-rule="evenodd" clip-rule="evenodd" d="M11.0713 7.8984C11.2665 8.09366 11.5831 8.09366 11.7784 7.8984L12.1319 7.54485C12.3272 7.34958 12.3272 7.033 12.1319 6.83774L9.30348 4.00931C9.10822 3.81405 8.79163 3.81405 8.59637 4.00931L8.24281 4.36287C8.04755 4.55813 8.04755 4.87471 8.24282 5.06997L11.0713 7.8984Z" fill="#333333"/>
<path fill-rule="evenodd" clip-rule="evenodd" d="M6.77348 7.9609C6.57821 8.15616 6.26163 8.15616 6.06637 7.9609L5.71282 7.60735C5.51755 7.41208 5.51755 7.0955 5.71282 6.90024L8.54124 4.07181C8.7365 3.87655 9.05309 3.87655 9.24835 4.07181L9.6019 4.42536C9.79716 4.62063 9.79716 4.93721 9.6019 5.13247L6.77348 7.9609Z" fill="#333333"/>
</svg>
