<svg width="24" height="24" viewBox="0 0 24 24" fill="none" xmlns="http://www.w3.org/2000/svg">
<path d="M19.5001 22H4.50002C3.83697 22 3.20108 21.7366 2.73224 21.2678C2.26339 20.7989 2 20.163 2 19.5V6.16657C2 5.83826 2.06466 5.51317 2.1903 5.20985C2.31594 4.90654 2.50009 4.63094 2.73224 4.39879C3.20108 3.92994 3.83697 3.66655 4.50002 3.66655H7.00003V2.83321C7.00006 2.61222 7.08788 2.40029 7.24415 2.24403C7.40043 2.08778 7.61238 2 7.83337 2C8.05436 2 8.2663 2.08778 8.42258 2.24403C8.57886 2.40029 8.66667 2.61222 8.66671 2.83321V3.66655H15.3334V2.83321C15.3334 2.61222 15.4213 2.40029 15.5775 2.24403C15.7338 2.08778 15.9458 2 16.1668 2C16.3877 2 16.5997 2.08778 16.756 2.24403C16.9122 2.40029 17.0001 2.61222 17.0001 2.83321V3.66655H19.5001C20.1632 3.66655 20.799 3.92994 21.2679 4.39879C21.7367 4.86763 22.0001 5.50352 22.0001 6.16657V19.5C22.0001 20.163 21.7367 20.7989 21.2679 21.2678C20.799 21.7366 20.1632 22 19.5001 22ZM3.66668 9.54159V19.5C3.66668 19.721 3.75447 19.933 3.91076 20.0892C4.06704 20.2455 4.279 20.3333 4.50002 20.3333H19.5001C19.7211 20.3333 19.9331 20.2455 20.0894 20.0892C20.2456 19.933 20.3334 19.721 20.3334 19.5V9.54159H3.66668ZM3.66668 7.87491H20.3334V6.16657C20.3334 5.94555 20.2456 5.73359 20.0894 5.57731C19.9331 5.42102 19.7211 5.33323 19.5001 5.33323H17.0001V6.16657C17.0001 6.38756 16.9122 6.59949 16.756 6.75574C16.5997 6.912 16.3877 6.99978 16.1668 6.99978C15.9458 6.99978 15.7338 6.912 15.5775 6.75574C15.4213 6.59949 15.3334 6.38756 15.3334 6.16657V5.33323H8.66671V6.16657C8.66667 6.38756 8.57886 6.59949 8.42258 6.75574C8.2663 6.912 8.05436 6.99978 7.83337 6.99978C7.61238 6.99978 7.40043 6.912 7.24415 6.75574C7.08788 6.59949 7.00006 6.38756 7.00003 6.16657V5.33323H4.50002C4.279 5.33323 4.06704 5.42102 3.91076 5.57731C3.75447 5.73359 3.66668 5.94555 3.66668 6.16657V7.87491ZM10.9167 17.7833C10.7062 17.7826 10.5037 17.7022 10.35 17.5583L8.0917 15.4333C7.93516 15.2797 7.84516 15.0708 7.84104 14.8515C7.83692 14.6322 7.91902 14.42 8.06967 14.2606C8.22033 14.1012 8.42752 14.0073 8.6467 13.9991C8.86587 13.9909 9.07952 14.069 9.24171 14.2166L10.9084 15.7916L14.7501 11.9999C14.9105 11.8645 15.116 11.7945 15.3258 11.8041C15.5355 11.8136 15.7339 11.902 15.8813 12.0515C16.0286 12.201 16.1142 12.4006 16.1208 12.6104C16.1273 12.8203 16.0545 13.0248 15.9167 13.1833L11.5084 17.5333C11.4312 17.612 11.3392 17.6747 11.2376 17.7176C11.136 17.7605 11.027 17.7828 10.9167 17.7833Z" fill="currentColor"/>
</svg>
