<svg width="24" height="24" viewBox="0 0 24 24" fill="none" xmlns="http://www.w3.org/2000/svg">
<path d="M0.640535 7.6951C0.251163 8.00406 0.185974 8.57017 0.494931 8.95954C0.803888 9.34891 1.37 9.4141 1.75937 9.10514L0.640535 7.6951ZM4.61048 6.08825L4.29948 6.93281L4.61048 6.08825ZM2.33679 16.8002L1.47014 16.5575C1.36317 16.9394 1.51887 17.3464 1.85347 17.5594C2.18807 17.7724 2.62267 17.7412 2.92347 17.4827L2.33679 16.8002ZM11.4315 10.5105L11.149 11.365L11.4315 10.5105ZM13.7052 14.4569L13.9877 13.6024L13.7052 14.4569ZM23.1318 11.4351C23.5939 11.2518 23.8198 10.7287 23.6365 10.2666C23.4532 9.80462 22.9301 9.57868 22.4681 9.76198L23.1318 11.4351ZM1.75937 9.10514C2.05141 8.87342 2.35263 8.56366 2.61937 8.28677C2.90335 7.99199 3.16774 7.71332 3.43553 7.47001C3.70719 7.2232 3.92862 7.06368 4.10399 6.98275C4.18636 6.94474 4.23885 6.93352 4.26595 6.93071C4.288 6.92844 4.29499 6.93116 4.29948 6.93281L4.92147 5.24369C4.33967 5.02945 3.78576 5.14719 3.34976 5.34839C2.92614 5.54388 2.54427 5.84779 2.2251 6.13778C1.90207 6.43127 1.58812 6.76279 1.32304 7.03796C1.04073 7.33102 0.822182 7.55097 0.640535 7.6951L1.75937 9.10514ZM4.29948 6.93281C4.06833 6.84769 4.05078 6.66192 4.07443 6.76257C4.09801 6.86289 4.1123 7.06976 4.07882 7.41536C4.01313 8.09332 3.79397 9.03333 3.48433 10.1212C3.17792 11.1977 2.79838 12.367 2.43146 13.4923C2.06785 14.6074 1.71332 15.6891 1.47014 16.5575L3.20345 17.0429C3.43395 16.2198 3.77416 15.1808 4.14278 14.0503C4.5081 12.9299 4.8983 11.7286 5.21557 10.6139C5.52962 9.51061 5.78808 8.43888 5.87043 7.58894C5.91096 7.17058 5.91686 6.73447 5.8267 6.3508C5.73662 5.96746 5.5 5.45672 4.92147 5.24369L4.29948 6.93281ZM2.92347 17.4827C4.34694 16.2591 6.28716 14.603 8.02187 13.3054C8.89208 12.6545 9.68444 12.1136 10.3188 11.7642C10.6377 11.5886 10.8874 11.4778 11.0682 11.4213C11.2805 11.3549 11.2684 11.4044 11.149 11.365L11.714 9.65594C11.2833 9.51352 10.8421 9.60603 10.5311 9.70325C10.1885 9.81034 9.82049 9.98372 9.45038 10.1876C8.70677 10.5972 7.83619 11.1964 6.9437 11.864C5.15302 13.2035 3.16875 14.8982 1.75012 16.1177L2.92347 17.4827ZM11.149 11.365C11.3064 11.417 11.4392 11.5249 11.5715 11.7585C11.7158 12.0132 11.8222 12.3523 11.9309 12.7821C12.0266 13.1606 12.1384 13.6818 12.2937 14.0895C12.4435 14.4828 12.744 15.0871 13.4227 15.3115L13.9877 13.6024C14.1272 13.6485 14.087 13.7408 13.9758 13.4489C13.8701 13.1712 13.8006 12.8338 13.6759 12.3407C13.5642 11.8989 13.4109 11.3535 13.1376 10.8711C12.8522 10.3676 12.4093 9.88579 11.714 9.65594L11.149 11.365ZM13.4227 15.3115C14.1573 15.5543 15.0166 15.3528 15.7417 15.1005C16.5181 14.8304 17.3838 14.4102 18.2442 13.9591C20.029 13.0232 21.7684 11.9761 23.1318 11.4351L22.4681 9.76198C20.9894 10.3486 19.034 11.5125 17.4083 12.3649C16.5635 12.8079 15.7949 13.1762 15.1503 13.4005C14.4544 13.6426 14.1058 13.6415 13.9877 13.6024L13.4227 15.3115Z" fill="#5331F4"/>
</svg>
