<svg width="24" height="24" viewBox="0 0 24 24" fill="none" xmlns="http://www.w3.org/2000/svg">
<path d="M14.1265 12.3784C15.1082 11.7256 15.6903 10.5945 15.6639 9.39112C15.6249 7.58771 14.2296 6.10009 12.4814 6.00516C10.9577 5.91981 9.5689 6.90133 9.09779 8.39657C8.62668 9.8918 9.19115 11.5264 10.4731 12.3792C10.5604 12.4378 10.609 12.5414 10.5992 12.6483C10.5894 12.7552 10.5227 12.8476 10.4262 12.8881C8.86981 13.5502 7.74959 14.9855 7.45613 16.6937C7.42155 16.9044 7.4791 17.1201 7.61337 17.283C7.74765 17.4459 7.94492 17.5394 8.15238 17.5384H16.4465C16.6538 17.5393 16.851 17.4457 16.9852 17.2828C17.1194 17.1199 17.1769 16.9043 17.1423 16.6937C16.8486 14.986 15.7284 13.5513 14.1722 12.8897C14.0749 12.8492 14.0077 12.7561 13.9981 12.6484C13.9885 12.5408 14.0381 12.4366 14.1265 12.3784Z" fill="currentColor"/>
<path d="M19.7933 15.1779C19.5918 13.9955 18.824 13.0022 17.7576 12.5446C17.6913 12.5165 17.6456 12.4523 17.6391 12.3781C17.6325 12.3039 17.6662 12.2321 17.7265 12.1919C18.5677 11.6288 18.964 10.5649 18.7072 9.55844C18.4504 8.55202 17.5993 7.83309 16.6005 7.77895C16.5047 7.77381 16.4088 7.7748 16.3131 7.7819C16.4861 8.25522 16.5798 8.75596 16.59 9.26229C16.6173 10.4981 16.1502 11.6902 15.3003 12.5534C16.4827 13.2815 17.384 14.4162 17.8489 15.762H19.3152C19.4573 15.7628 19.5924 15.6982 19.6846 15.5857C19.7767 15.4731 19.8165 15.3239 19.7933 15.1779ZM9.29704 12.5555C8.08151 11.3133 7.6838 9.44163 8.28261 7.78148L8.24867 7.77895C7.2039 7.71786 6.25083 8.39761 5.92811 9.43402C5.60539 10.4704 5.9941 11.6031 6.87455 12.1919C6.93447 12.2324 6.96779 12.3042 6.961 12.3782C6.9542 12.4523 6.90841 12.5162 6.84221 12.5441C5.77569 13.0018 5.00782 13.9953 4.8065 15.1779C4.78288 15.324 4.82243 15.4735 4.91454 15.5863C5.00666 15.6992 5.14195 15.764 5.2842 15.7633H6.74966C7.21415 14.4182 8.11455 13.2838 9.29583 12.5555H9.29704Z" fill="currentColor"/>
</svg>
