<svg fill="none" height="20" viewBox="0 0 20 20" width="20" xmlns="http://www.w3.org/2000/svg" xmlns:xlink="http://www.w3.org/1999/xlink"><clipPath id="a"><path d="m0 0h20v20h-20z"/></clipPath><g clip-path="url(#a)"><path d="m0 10c0 2.6522 1.05357 5.1957 2.92893 7.0711 1.87537 1.8753 4.41891 2.9289 7.07107 2.9289 2.6522 0 5.1957-1.0536 7.0711-2.9289 1.8753-1.8754 2.9289-4.4189 2.9289-7.0711 0-2.65216-1.0536-5.1957-2.9289-7.07107-1.8754-1.87536-4.4189-2.92893-7.0711-2.92893-2.65216 0-5.1957 1.05357-7.07107 2.92893-1.87536 1.87537-2.92893 4.41891-2.92893 7.07107z" fill="#f3ba2f"/><g fill="#fff"><path d="m7.41044 8.45477 2.58966-2.59073 2.5918 2.59176 1.5072-1.50722-4.099-4.09897-4.09688 4.09794zm-4.07939 1.06391 1.50722-1.50721 1.50722 1.50721-1.50722 1.50722zm4.07939 1.06392 2.58966 2.5907 2.5918-2.5917 1.5082 1.5062-.001.001-4.099 4.0979-4.09688-4.0969-.00206-.002zm6.24436-1.06289 1.5072-1.50721 1.5072 1.50721-1.5072 1.50719z"/><path d="m11.5285 9.51764-1.52888-1.52887-1.12989 1.1299-.1299.12989-.26804.26804-.00206.00207.00206.00206 1.52783 1.52787 1.52888-1.5289.001-.00103z"/></g></g></svg>