<svg fill="none" height="20" viewBox="0 0 20 20" width="20" xmlns="http://www.w3.org/2000/svg" xmlns:xlink="http://www.w3.org/1999/xlink"><clipPath id="a"><path d="m0 0h20v20h-20z"/></clipPath><g clip-path="url(#a)"><path d="m0 10c0 2.6522 1.05357 5.1957 2.92893 7.0711 1.87537 1.8753 4.41891 2.9289 7.07107 2.9289 2.6522 0 5.1957-1.0536 7.0711-2.9289 1.8753-1.8754 2.9289-4.4189 2.9289-7.0711 0-2.65216-1.0536-5.1957-2.9289-7.07107-1.8754-1.87536-4.4189-2.92893-7.0711-2.92893-2.65216 0-5.1957 1.05357-7.07107 2.92893-1.87536 1.87537-2.92893 4.41891-2.92893 7.07107z" fill="#7950dd"/><path d="m13.5646 8.66596c-.2583-.15222-.5941-.15222-.8782 0l-2.0148 1.167-1.36903.76114-2.01475 1.167c-.25829.1522-.59409.1522-.87823 0l-1.60147-.9133c-.2583-.1522-.43912-.4313-.43912-.7358v-1.80122c0-.30444.15498-.58351.43912-.73573l1.57564-.88795c.25831-.15222.59408-.15222.87824 0l1.57564.88795c.25829.15222.4391.43129.4391.73573v1.16702l1.36896-.78647v-1.16702c0-.30444-.1549-.58351-.4391-.73573l-2.91878-1.67442c-.25829-.15221-.59409-.15221-.87823 0l-2.97047 1.67442c-.28414.15222-.43912.43129-.43912.73573v3.37419c0 .3044.15498.5835.43912.7357l2.97047 1.6744c.25831.1523.59412.1523.87823 0l2.01475-1.1416 1.36903-.7865 2.0148-1.1416c.2582-.1522.594-.1522.8782 0l1.5756.888c.2583.1522.4391.4312.4391.7357v1.8012c0 .3045-.1549.5835-.4391.7358l-1.5756.9133c-.2583.1522-.5941.1522-.8782 0l-1.5757-.888c-.2583-.1522-.4391-.4312-.4391-.7357v-1.167l-1.36903.7864v1.1671c0 .3044.15499.5835.43914.7357l2.97049 1.6744c.2583.1523.5941.1523.8782 0l2.9705-1.6744c.2583-.1522.4391-.4313.4391-.7357v-3.3742c0-.3045-.155-.5835-.4391-.7357z" fill="#fff"/></g></svg>