<?xml version="1.0" standalone="no"?><!DOCTYPE svg PUBLIC "-//W3C//DTD SVG 1.1//EN" "http://www.w3.org/Graphics/SVG/1.1/DTD/svg11.dtd"><svg t="1647685983342" class="icon" viewBox="0 0 1024 1024" version="1.1" xmlns="http://www.w3.org/2000/svg" p-id="8975" xmlns:xlink="http://www.w3.org/1999/xlink" width="200" height="200"><defs><style type="text/css">@font-face { font-family: feedback-iconfont; src: url("//at.alicdn.com/t/font_1031158_u69w8yhxdu.woff2?t=1630033759944") format("woff2"), url("//at.alicdn.com/t/font_1031158_u69w8yhxdu.woff?t=1630033759944") format("woff"), url("//at.alicdn.com/t/font_1031158_u69w8yhxdu.ttf?t=1630033759944") format("truetype"); }
</style></defs><path d="M64.44 511.36c0 247.06 200.55 447.35 448 447.35s448-200.26 448-447.35S759.79 64 512.39 64 64.44 264.27 64.44 511.36z m0 0" fill="#722ED1" p-id="8976"></path><path d="M720.28 804.56c-20.91-8.16-45.58-15.06-72.91-20.41-15.29-3-31.42-5.52-48.26-7.46-24.65 6.62-54.51 10.49-86.71 10.49s-62.13-3.88-86.8-10.51c-18.15 2.09-35.45 4.84-51.8 8.15 1.45 0.49 2.93 0.9 4.4 1.35l1.47 0.46-1.47-0.46c-1.47-0.45-3-0.86-4.4-1.35-25.8 5.18-49.1 11.81-69.09 19.55-0.38-1.12-48.49 25.65-76.14 53.18 165.12 135 402.65 134.89 567.66-0.22-27.64-27.37-75.54-53.92-76-52.77z m0 0" fill="#391085" p-id="8977"></path><path d="M708.94 452c-5.69-2.15-12-1.12-18.24 2.33 0.56-36.84-4.91-70.18-15.79-96.64h-325.3c-11.32 27.51-16.81 62.43-15.74 101-6.25-3.49-12.59-4.52-18.3-2.37-16.16 6.07-21.16 35.14-11.16 64.86s31.25 48.85 47.44 42.75c14.56 47.2 36.18 87.88 61 118.28q6.56 8 13.36 15.06v79.28l-0.6 0.08c24.66 6.63 54.56 10.51 86.8 10.51s62.06-3.87 86.71-10.49l-0.8-0.1v-79.2q6.86-7.08 13.45-15.16c24.77-30.36 46.35-70.9 60.9-118 0.43-1.39 38.52 0 47.45-47.31 10-29.71 5-58.75-11.17-64.85z m0 0" fill="#EED5A1" p-id="8978"></path><path d="M674.91 359.24s-2 41.33 15.79 100.81c0 0 77.59-225.16-68.23-225.16 0 0-377.64-131.13-288.6 229.72a90.49 90.49 0 0 0 6.93 18.25c59.82-88.37 258-59.74 334.11-123.62z m0 0" fill="#391085" p-id="8979"></path><path d="M345.21 880.17h81v18.66h-81z m166.76-93s18.55 31.2 64.67 40.32c0 0 23.74-31.51 22-50.81l-86.72 10.49z m0 0" fill="#BEB9C6" p-id="8980"></path><path d="M511.93 787.18s-18.54 31.2-64.66 40.32c0 0-23.75-31.51-22.06-50.81z m0 0" fill="#BEB9C6" p-id="8981"></path><path d="M503.82 811.43a9.34 9.34 0 1 0 9.34-9.33 9.33 9.33 0 0 0-9.34 9.33z m-0.05 31.25a9.35 9.35 0 1 0 9.34-9 9.34 9.34 0 0 0-9.34 9z m0 31.82a9.35 9.35 0 1 0 9.34-9 9.34 9.34 0 0 0-9.34 9z m0 0" fill="#722ED1" p-id="8982"></path></svg>