<svg width="40" height="40" viewBox="0 0 40 40" fill="none" xmlns="http://www.w3.org/2000/svg">
<rect width="40" height="40" rx="4" fill="#F5F6FA"/>
<path d="M10.9139 11.6258C10.921 11.6122 10.9329 11.6015 10.9473 11.5957C12.6152 10.8441 14.3753 10.3082 16.1836 10.0013C16.2 9.99831 16.217 10.0005 16.2321 10.0075C16.2472 10.0145 16.2597 10.026 16.2677 10.0404C16.5074 10.4676 16.7249 10.9065 16.9196 11.3553C18.8688 11.0647 20.8515 11.0647 22.8007 11.3553C22.9966 10.9053 23.2177 10.4664 23.4629 10.0404C23.4713 10.0263 23.4838 10.0151 23.4988 10.0081C23.5138 10.0011 23.5306 9.99878 23.547 10.0013C25.3555 10.3075 27.1157 10.8435 28.7834 11.5958C28.7977 11.6017 28.8097 11.6118 28.8179 11.6248C32.1529 16.5163 33.0665 21.2875 32.6183 25.9996C32.617 26.0112 32.6134 26.0223 32.6077 26.0325C32.6019 26.0426 32.5942 26.0515 32.5848 26.0587C30.6429 27.4709 28.4708 28.5488 26.1612 29.2465C26.145 29.2513 26.1276 29.2511 26.1115 29.2459C26.0953 29.2407 26.0812 29.2308 26.071 29.2175C25.5749 28.5546 25.1354 27.8526 24.7569 27.1188C24.7517 27.1087 24.7487 27.0977 24.7482 27.0864C24.7476 27.0751 24.7495 27.0638 24.7537 27.0533C24.7579 27.0428 24.7644 27.0333 24.7726 27.0254C24.7808 27.0175 24.7907 27.0115 24.8014 27.0076C25.4946 26.7471 26.1656 26.4331 26.8082 26.0686C26.8198 26.0618 26.8296 26.0524 26.8367 26.041C26.8438 26.0297 26.8479 26.0168 26.8487 26.0035C26.8495 25.9903 26.847 25.977 26.8413 25.9649C26.8356 25.9528 26.827 25.9423 26.8163 25.9343C26.681 25.8351 26.5482 25.7328 26.4177 25.6276C26.4063 25.6183 26.3925 25.6124 26.3778 25.6105C26.3631 25.6085 26.3481 25.6106 26.3346 25.6166C22.1246 27.5036 17.5667 27.5036 13.4065 25.6166C13.3929 25.6103 13.3778 25.6078 13.3629 25.6096C13.348 25.6114 13.334 25.6173 13.3223 25.6266C13.1918 25.7324 13.0585 25.835 12.9228 25.9343C12.912 25.9422 12.9033 25.9527 12.8975 25.9647C12.8918 25.9768 12.8892 25.99 12.8899 26.0033C12.8906 26.0165 12.8946 26.0295 12.9016 26.0408C12.9085 26.0522 12.9183 26.0618 12.9299 26.0686C13.571 26.4362 14.2427 26.75 14.9376 27.0066C14.9484 27.0106 14.9582 27.0168 14.9663 27.0249C14.9745 27.0329 14.9809 27.0425 14.985 27.0531C14.9891 27.0637 14.9909 27.075 14.9903 27.0863C14.9897 27.0976 14.9866 27.1087 14.9813 27.1188C14.5964 27.8485 14.1576 28.5496 13.6682 29.2163C13.6583 29.23 13.6442 29.2402 13.628 29.2456C13.6118 29.251 13.5943 29.2513 13.578 29.2464C11.2643 28.5511 9.08838 27.473 7.14399 26.0587C7.13453 26.0519 7.12664 26.0432 7.12087 26.0332C7.1151 26.0232 7.11157 26.0121 7.11053 26.0006C6.57397 20.5529 8.0088 15.8208 10.9139 11.6258ZM24.1281 23.1304C25.3957 23.1304 26.4401 21.988 26.4401 20.585C26.4401 19.182 25.4159 18.0395 24.1281 18.0395C22.8303 18.0395 21.796 19.1919 21.8163 20.5849C21.8163 21.988 22.8404 23.1304 24.1281 23.1304ZM15.5803 23.1304C16.8477 23.1304 17.8921 21.988 17.8921 20.585C17.8921 19.182 16.868 18.0395 15.5803 18.0395C14.2823 18.0395 13.2481 19.1919 13.2683 20.5849C13.2683 21.988 14.2823 23.1304 15.5803 23.1304Z" fill="#C0C0C0"/>
</svg>
