<svg width="40" height="40" viewBox="0 0 40 40" fill="none" xmlns="http://www.w3.org/2000/svg">
<rect width="40" height="40" rx="4" fill="#F5F6FA"/>
<path d="M22.1663 9.16663H13.4997C13.2151 9.16663 12.9334 9.22267 12.6705 9.33155C12.4077 9.44044 12.1688 9.60003 11.9676 9.80123C11.7664 10.0024 11.6068 10.2413 11.4979 10.5041C11.3891 10.767 11.333 11.0488 11.333 11.3333V28.6666C11.333 28.9512 11.3891 29.2329 11.4979 29.4958C11.6068 29.7586 11.7664 29.9975 11.9676 30.1987C12.1688 30.3999 12.4077 30.5595 12.6705 30.6684C12.9334 30.7773 13.2151 30.8333 13.4997 30.8333H26.4997C26.7842 30.8333 27.066 30.7773 27.3288 30.6684C27.5917 30.5595 27.8305 30.3999 28.0317 30.1987C28.2329 29.9975 28.3925 29.7586 28.5014 29.4958C28.6103 29.2329 28.6663 28.9512 28.6663 28.6666V15.6666L22.1663 9.16663ZM16.9176 25.9085C16.4561 26.292 15.7552 26.4729 14.8983 26.4729C14.3837 26.4729 14.0208 26.4404 13.7738 26.4079V22.106C14.2168 22.0422 14.6641 22.0121 15.1117 22.016C15.9437 22.016 16.4832 22.1655 16.9046 22.484C17.3596 22.822 17.6456 23.3615 17.6456 24.1329C17.6456 24.9725 17.3401 25.551 16.9176 25.9085ZM20.1568 26.5C18.8568 26.5 18.0973 25.5185 18.0973 24.2705C18.0973 22.9585 18.9348 21.9781 20.2283 21.9781C21.5727 21.9781 22.3072 22.9845 22.3072 24.1935C22.3061 25.629 21.4351 26.5 20.1568 26.5ZM25.1997 25.6745C25.4976 25.6745 25.8291 25.6084 26.0252 25.5315L26.1747 26.3039C25.9927 26.3949 25.5832 26.4924 25.0513 26.4924C23.5378 26.4924 22.7578 25.551 22.7578 24.303C22.7578 22.809 23.8228 21.9781 25.1488 21.9781C25.6623 21.9781 26.0512 22.0821 26.2267 22.1731L26.0252 22.9596C25.7614 22.8506 25.4786 22.7954 25.1932 22.7971C24.4067 22.7971 23.7957 23.2716 23.7957 24.2466C23.7957 25.123 24.3157 25.6745 25.1997 25.6745ZM22.1663 16.75H21.083V11.3333L26.4997 16.75H22.1663Z" fill="#C0C0C0"/>
</svg>
