<svg width="20" height="20" viewBox="0 0 20 20" fill="none" xmlns="http://www.w3.org/2000/svg">
<g clip-path="url(#clip0_11852_2165)">
<path d="M19.5999 0.200195H0.399902V19.4002H19.5999V0.200195Z" fill="white" fill-opacity="0.01"/>
<path d="M2 13.7998C2 14.9044 2.89543 15.7998 4 15.7998H16C17.1046 15.7998 18 14.9044 18 13.7998V9.7998V5.7998C18 4.69524 17.1046 3.7998 16 3.7998H10H4C2.89543 3.7998 2 4.69524 2 5.7998V9.7998V13.7998Z" fill="#B3B3B3" stroke="#B3B3B3" stroke-width="1.33333" stroke-linejoin="round"/>
<path d="M2.7998 4.2002L9.99981 9.8002L17.1998 4.2002" stroke="white" stroke-width="1.33333" stroke-linecap="round" stroke-linejoin="round"/>
<path d="M10 3.7998H4C2.89543 3.7998 2 4.69524 2 5.7998V9.79981" stroke="#B3B3B3" stroke-width="1.33333" stroke-linecap="round" stroke-linejoin="round"/>
<path d="M18 9.79981V5.7998C18 4.69524 17.1046 3.7998 16 3.7998H10" stroke="#B3B3B3" stroke-width="1.33333" stroke-linecap="round" stroke-linejoin="round"/>
</g>
<defs>
<clipPath id="clip0_11852_2165">
<rect width="19.2" height="19.2" fill="white" transform="translate(0.399902 0.200195)"/>
</clipPath>
</defs>
</svg>
