<?xml version="1.0" standalone="no"?><!DOCTYPE svg PUBLIC "-//W3C//DTD SVG 1.1//EN" "http://www.w3.org/Graphics/SVG/1.1/DTD/svg11.dtd"><svg t="1647682506801" class="icon" viewBox="0 0 1024 1024" version="1.1" xmlns="http://www.w3.org/2000/svg" p-id="2205" xmlns:xlink="http://www.w3.org/1999/xlink" width="200" height="200"><defs><style type="text/css">@font-face { font-family: feedback-iconfont; src: url("//at.alicdn.com/t/font_1031158_u69w8yhxdu.woff2?t=1630033759944") format("woff2"), url("//at.alicdn.com/t/font_1031158_u69w8yhxdu.woff?t=1630033759944") format("woff"), url("//at.alicdn.com/t/font_1031158_u69w8yhxdu.ttf?t=1630033759944") format("truetype"); }
</style></defs><path d="M512 1024c282.763636 0 512-229.236364 512-512S794.763636 0 512 0 0 229.236364 0 512s229.236364 512 512 512z" fill="#007EBB" p-id="2206"></path><path d="M839.121455 810.658909H710.516364v-218.996364c0-60.043636-22.807273-93.579636-70.353455-93.579636-51.688727 0-78.708364 34.909091-78.708364 93.579636v218.996364h-123.904V393.472h123.904v56.203636s37.259636-68.933818 125.789091-68.933818c88.482909 0 151.854545 54.039273 151.854546 165.794909v264.145455zM289.745455 338.850909c-42.216727 0-76.404364-34.466909-76.404364-76.986182 0-42.496 34.210909-76.986182 76.404364-76.986182s76.381091 34.490182 76.38109 76.986182c0 42.519273-34.187636 76.986182-76.38109 76.986182zM225.745455 810.658909h129.233454V393.472H225.745455v417.186909z" fill="#FFFFFF" p-id="2207"></path></svg>