<svg width="20" height="20" viewBox="0 0 20 20" fill="none" xmlns="http://www.w3.org/2000/svg">
<!-- <path d="M0 10C0 12.6522 1.05357 15.1957 2.92893 17.0711C4.8043 18.9464 7.34784 20 10 20C12.6522 20 15.1957 18.9464 17.0711 17.0711C18.9464 15.1957 20 12.6522 20 10C20 7.34784 18.9464 4.8043 17.0711 2.92893C15.1957 1.05357 12.6522 0 10 0C7.34784 0 4.8043 1.05357 2.92893 2.92893C1.05357 4.8043 0 7.34784 0 10H0Z" fill="#F5F6FA"/> -->
<path d="M9.99973 16C9.19017 16 8.40385 15.854 7.66433 15.5645C6.94945 15.2862 6.30838 14.8872 5.75748 14.379C5.20651 13.8705 4.77413 13.2782 4.47163 12.6191C4.15876 11.9367 4 11.2117 4 10.4642C4 9.56988 4.23767 8.68194 4.68681 7.89539C5.12106 7.13541 5.75189 6.46811 6.5115 5.96575C6.72254 5.82618 7.01577 5.87143 7.16661 6.06569C7.31746 6.26002 7.26932 6.53012 7.0582 6.66885C6.41629 7.09451 5.88351 7.65706 5.51744 8.29865C5.13321 8.97109 4.93858 9.69956 4.93858 10.4642C4.93858 11.7118 5.46517 12.8849 6.42146 13.7668C7.37714 14.6491 8.64809 15.135 9.99976 15.135C11.3511 15.135 12.6224 14.6491 13.5787 13.7668C14.5349 12.8849 15.061 11.7119 15.061 10.4642C15.061 9.70042 14.8668 8.97066 14.4822 8.29865C14.116 7.65758 13.5829 7.09454 12.9408 6.66971C12.7303 6.53104 12.6812 6.26088 12.8325 6.06663C12.9838 5.87237 13.2765 5.8267 13.4871 5.96668C14.2472 6.46895 14.8789 7.13626 15.3128 7.89625C15.7623 8.68281 16 9.5708 16 10.4651C16 11.2126 15.8413 11.9376 15.528 12.6204C15.2258 13.2796 14.7931 13.8719 14.2422 14.3802C13.6911 14.8886 13.05 15.287 12.3353 15.5667C11.5953 15.8544 10.8094 16 9.99981 16H9.99973ZM10.1407 9.99293C9.88155 9.99293 9.6715 9.79995 9.6715 9.56042V4.43294C9.6715 4.19428 9.88158 4 10.1407 4C10.3999 4 10.6104 4.19427 10.6104 4.43294V9.56042C10.6104 9.79994 10.3999 9.99293 10.1407 9.99293Z" fill="currentColor"/>
</svg>
