<svg width="80" height="80" viewBox="0 0 80 80" fill="none" xmlns="http://www.w3.org/2000/svg">
<circle cx="16" cy="16" r="14" fill="white"/>
<path d="M40 75C59.33 75 75 59.33 75 40C75 20.67 59.33 5 40 5C20.67 5 5 20.67 5 40C5 54.2003 13.4567 66.4254 25.6087 71.9138C25.625 71.5352 25.6434 71.188 25.6591 70.8902C25.6805 70.4844 25.6971 70.1705 25.6971 69.994C25.6971 68.9423 26.4123 63.7259 26.4123 63.7259L30.7873 45.7632C30.1142 44.6694 29.6094 42.3557 29.6094 40.5889C29.6094 32.4279 34.1527 30.661 36.9291 30.661C40.4627 30.661 41.262 34.4892 41.262 37.3077C41.262 38.7985 40.4887 41.1321 39.6929 43.5335C38.8495 46.0786 37.9808 48.6999 37.9808 50.4747C37.9808 53.9243 41.3882 55.649 43.744 55.649C49.97 55.649 55.6911 47.8245 55.6911 40C55.6911 32.1755 52.0313 22.7103 40.0421 22.7103C28.0529 22.7103 22.6683 31.8389 22.6683 38.8221C22.6683 43.5336 24.4351 46.9831 25.3185 47.5721C25.5709 47.7964 26 48.4892 25.6971 49.4651C25.3942 50.4411 24.8418 52.6202 24.6034 53.5877C24.5753 53.8121 24.3089 54.1935 23.4676 53.9243C22.4159 53.5877 15.7272 49.381 15.7272 38.8221C15.7272 28.2632 24.0144 15.9795 40.0421 15.9795C56.0697 15.9795 64.2728 26.7488 64.2728 40C64.2728 53.2512 53.5457 61.7067 45.3846 61.7067C38.8558 61.7067 36.2981 58.79 35.8353 57.3317L33.3534 66.7968C32.7673 68.3671 31.6741 71.1894 30.3259 73.6459C33.3984 74.5277 36.644 75 40 75Z" fill="#F5F6FA"/>
<circle cx="39" cy="41" r="36" fill="#F5F6FA"/>
<path d="M30.8377 36.5574C31.5804 32.7518 34.9218 29.8746 39.0058 29.8746C43.0897 29.8746 46.4311 32.7518 47.1738 36.5574C49.9581 37.3001 52 39.8988 52 42.869C52 46.4889 49.1227 49.3664 45.5028 49.3664H44.5745V47.5099H45.5028C48.1015 47.5099 50.1437 45.468 50.1437 42.869C50.1437 40.2703 48.1018 38.2281 45.5028 38.2281C45.5028 34.6081 42.6255 31.7309 39.0056 31.7309C35.3856 31.7309 32.5081 34.6081 32.5081 38.2281C29.9094 38.2281 27.8672 40.27 27.8672 42.869C27.8672 45.468 29.9091 47.5099 32.5081 47.5099H33.4364V49.3664H32.5081C28.8882 49.3664 26.0109 46.4889 26.0109 42.869C26.0112 39.8988 28.0533 37.3001 30.8377 36.5574Z" fill="#5331F4"/>
<path d="M38.1703 40.3629C38.5417 40.0844 38.9127 39.9915 39.2841 40.1773C39.3768 40.1773 39.4697 40.27 39.5627 40.3629L42.3473 43.0546C42.7185 43.4261 42.7185 43.9829 42.3473 44.3541C41.9758 44.7256 41.3263 44.7256 40.9548 44.3541L39.8412 43.3331V51.2228C39.8412 51.7796 39.3771 52.1508 38.9129 52.1508C38.3561 52.1508 37.9849 51.6869 37.9849 51.2228V43.3329L36.871 44.3538C36.4998 44.7253 35.8501 44.7253 35.4788 44.3538C35.1074 43.9826 35.1074 43.4258 35.4788 43.0543L38.1703 40.3629Z" fill="#5331F4"/>
</svg>
