<svg width="20" height="20" viewBox="0 0 20 20" fill="none" xmlns="http://www.w3.org/2000/svg">
<path d="M0 10C0 12.6522 1.05357 15.1957 2.92893 17.0711C4.8043 18.9464 7.34784 20 10 20C12.6522 20 15.1957 18.9464 17.0711 17.0711C18.9464 15.1957 20 12.6522 20 10C20 7.34784 18.9464 4.8043 17.0711 2.92893C15.1957 1.05357 12.6522 0 10 0C7.34784 0 4.8043 1.05357 2.92893 2.92893C1.05357 4.8043 0 7.34784 0 10H0Z" fill="currentColor"/>
<path d="M7.59961 7.12021C7.59961 7.75673 7.85247 8.36718 8.30255 8.81727C8.75264 9.26736 9.36309 9.52022 9.99961 9.52022C10.6361 9.52022 11.2466 9.26736 11.6967 8.81727C12.1468 8.36718 12.3996 7.75673 12.3996 7.12021C12.3996 6.4837 12.1468 5.87325 11.6967 5.42316C11.2466 4.97307 10.6361 4.72021 9.99961 4.72021C9.36309 4.72021 8.75264 4.97307 8.30255 5.42316C7.85247 5.87325 7.59961 6.4837 7.59961 7.12021Z" fill="white"/>
<path d="M8.79996 10.2402H11.2C13.3208 10.2402 15.04 11.9594 15.04 14.0802V14.3202C15.04 14.5748 14.9388 14.819 14.7588 14.9991C14.5787 15.1791 14.3346 15.2802 14.08 15.2802H5.91996C5.66535 15.2802 5.42117 15.1791 5.24114 14.9991C5.0611 14.819 4.95996 14.5748 4.95996 14.3202V14.0802C4.95996 11.9594 6.67908 10.2402 8.79996 10.2402Z" fill="white"/>
</svg>
