<svg width="40" height="40" viewBox="0 0 40 40" fill="none" xmlns="http://www.w3.org/2000/svg">
<rect width="40" height="40" rx="4" fill="#F5F6FA"/>
<path d="M20 9.5C14.201 9.5 9.5 14.201 9.5 20C9.5 25.799 14.201 30.5 20 30.5C25.799 30.5 30.5 25.799 30.5 20C30.5 14.201 25.799 9.5 20 9.5ZM23.4838 24.6403L23.0052 25.118C22.8785 25.2455 22.7893 25.4015 22.7443 25.571C22.6798 25.811 22.6287 26.0533 22.5417 26.2858L21.806 28.2695C21.2233 28.3962 20.6202 28.4675 20 28.4675V27.3088C20.0712 26.774 19.6767 25.7735 19.0422 25.139C18.9163 25.0132 18.8163 24.8638 18.7481 24.6993C18.6799 24.5348 18.6448 24.3585 18.6447 24.1805V22.8253C18.6453 22.5836 18.5809 22.3462 18.4583 22.1379C18.3357 21.9295 18.1595 21.758 17.948 21.641C17.2655 21.261 16.5766 20.8924 15.8818 20.5355C15.3959 20.2897 14.9452 19.9799 14.5415 19.6145L14.5078 19.5845C14.2185 19.3235 13.9616 19.0286 13.7428 18.7062C13.346 18.1235 12.6988 17.1642 12.2787 16.541C13.148 14.6096 14.7059 13.0714 16.6483 12.227L17.6645 12.7355C17.7678 12.7873 17.8827 12.8119 17.9981 12.8068C18.1136 12.8017 18.2258 12.7671 18.3242 12.7064C18.4225 12.6456 18.5037 12.5607 18.5599 12.4597C18.6162 12.3588 18.6456 12.2451 18.6455 12.1295V11.651C18.983 11.5963 19.328 11.5617 19.6775 11.549L20.876 12.7467C20.939 12.8097 20.989 12.8844 21.0231 12.9666C21.0572 13.0488 21.0747 13.137 21.0747 13.226C21.0747 13.315 21.0572 13.4032 21.0231 13.4854C20.989 13.5676 20.939 13.6423 20.876 13.7052L20.6772 13.9032L20.24 14.3412C20.1767 14.4048 20.1412 14.4908 20.1412 14.5805C20.1412 14.6702 20.1767 14.7562 20.24 14.8198L20.438 15.0185C20.5013 15.082 20.5368 15.1681 20.5368 15.2578C20.5368 15.3474 20.5013 15.4335 20.438 15.497L20.0997 15.836C20.0682 15.8675 20.0308 15.8924 19.9896 15.9094C19.9484 15.9264 19.9043 15.9351 19.8597 15.935H19.4795C19.3912 15.935 19.3065 15.9694 19.2432 16.031L18.8232 16.4398C18.7716 16.4898 18.7372 16.5551 18.7251 16.626C18.7129 16.6969 18.7237 16.7698 18.7557 16.8343L19.4157 18.1542C19.5282 18.3792 19.3647 18.6447 19.1135 18.6447H18.875C18.7935 18.6449 18.7146 18.6156 18.653 18.5623L18.26 18.2203C18.1711 18.1431 18.0636 18.0904 17.9481 18.0674C17.8327 18.0444 17.7132 18.0518 17.6015 18.089L16.2815 18.5292C16.1865 18.561 16.1031 18.6201 16.0418 18.6992C15.9805 18.7783 15.9439 18.8738 15.9369 18.9737C15.9298 19.0736 15.9525 19.1733 16.0021 19.2602C16.0517 19.3472 16.126 19.4175 16.2155 19.4622L16.685 19.6962C17.0832 19.8955 17.5223 19.9992 17.9675 19.9992C18.4137 19.9992 18.9245 21.155 19.3228 21.3545H22.1488C22.5087 21.3545 22.853 21.497 23.1073 21.7512L23.687 22.331C23.9293 22.5732 24.065 22.901 24.065 23.2438C24.065 23.7688 23.8558 24.2712 23.4838 24.6403ZM27.155 20.7725C26.91 20.711 26.6966 20.5605 26.5565 20.3502L25.7952 19.2087C25.6838 19.0419 25.6243 18.8458 25.6243 18.6451C25.6243 18.4445 25.6838 18.2483 25.7952 18.0815L26.624 16.838C26.7222 16.691 26.8565 16.5718 27.0155 16.493L27.5653 16.2177C28.1576 17.3906 28.4667 18.686 28.4675 20C28.4675 20.3675 28.4368 20.7267 28.391 21.0815L27.155 20.7725Z" fill="#C0C0C0"/>
</svg>
