<svg height="324" viewBox="0 0 578 324" width="578" xmlns="http://www.w3.org/2000/svg"><g fill="none" fill-rule="evenodd"><path d="m513 0c7.731986 0 14 6.2680135 14 14v97c28.166522 0 51 22.833478 51 51s-22.833478 51-51 51v97c0 7.731986-6.268014 14-14 14h-499c-7.7319865 0-14-6.268014-14-14v-296c0-7.7319865 6.2680135-14 14-14z" fill="#1c142c" transform="matrix(-1 0 0 1 578 0)"/><g transform="translate(68 3)"><text fill="#fff" font-family="PingFangSC-Regular, PingFang SC" font-size="15" opacity=".696591"><tspan x="47" y="16">IT Engineer Pay p.a.($)</tspan></text><text fill="#fff" font-family="PingFangSC-Regular, PingFang SC" font-size="10" opacity=".295991"><tspan x="401" y="15">Source:Bloomberg</tspan></text><g transform="translate(0 28.914959)"><text fill="#fff" font-family="PingFangSC-Regular, PingFang SC" font-size="10" opacity=".703334"><tspan x="0" y="62.085041">Sweden</tspan></text><text fill="#fff" font-family="PingFangSC-Regular, PingFang SC" font-size="10" opacity=".703334"><tspan x="23" y="110.085041">US</tspan></text><text fill="#fff" font-family="PingFangSC-Regular, PingFang SC" font-size="10" opacity=".703334"><tspan x="6" y="158.085041">Russia</tspan></text><text fill="#fff" font-family="PingFangSC-Regular, PingFang SC" font-size="10" opacity=".703334"><tspan x="11" y="207.085041">Brazil</tspan></text><text fill="#fff" font-family="PingFangSC-Regular, PingFang SC" font-size="10" opacity=".703334"><tspan x="15" y="255.085041">lndia</tspan></text><g stroke="#353535" stroke-dasharray="2" stroke-linecap="round" stroke-linejoin="round"><path d="m48.5 268.085041-.5-267.517986" opacity=".395206"/><path d="m131 268.085041-.5-267.517986" opacity=".395206"/><path d="m90 268.085041-.5-267.517986" opacity=".395206"/><path d="m172 268.085041-.5-267.517986" opacity=".395206"/><path d="m213 268.085041-.5-267.517986" opacity=".395206"/><path d="m254 268.085041-.5-267.517986" opacity=".395206"/><path d="m296 268.085041-.5-267.517986" opacity=".395206"/><path d="m337 268.085041-.5-267.517986" opacity=".395206"/><path d="m378 268.085041-.5-267.517986" opacity=".395206"/><path d="m460 268.085041-.5-267.517986" opacity=".395206"/><path d="m419 268.085041-.5-267.517986" opacity=".395206"/><path d="m48.5 268.585041h412"/></g><text fill="#fff" font-family="PingFangSC-Regular, PingFang SC" font-size="10" opacity=".703334"><tspan x="2" y="13.585041">Norway</tspan></text><text fill="#fff" font-family="PingFangSC-Regular, PingFang SC" font-size="10" opacity=".70073"><tspan x="81" y="286.085041">10k</tspan></text><text fill="#fff" font-family="PingFangSC-Regular, PingFang SC" font-size="10" opacity=".70073"><tspan x="120" y="286.085041">20k</tspan></text><text fill="#fff" font-family="PingFangSC-Regular, PingFang SC" font-size="10" opacity=".70073"><tspan x="162" y="286.085041">30k</tspan></text><text fill="#fff" font-family="PingFangSC-Regular, PingFang SC" font-size="10" opacity=".70073"><tspan x="203" y="286.085041">40k</tspan></text><text fill="#fff" font-family="PingFangSC-Regular, PingFang SC" font-size="10" opacity=".70073"><tspan x="244" y="286.085041">50k</tspan></text><text fill="#fff" font-family="PingFangSC-Regular, PingFang SC" font-size="10" opacity=".70073"><tspan x="286" y="286.085041">60k</tspan></text><text fill="#fff" font-family="PingFangSC-Regular, PingFang SC" font-size="10" opacity=".70073"><tspan x="327" y="286.085041">70k</tspan></text><text fill="#fff" font-family="PingFangSC-Regular, PingFang SC" font-size="10" opacity=".70073"><tspan x="367" y="286.085041">80k</tspan></text><text fill="#fff" font-family="PingFangSC-Regular, PingFang SC" font-size="10" opacity=".70073"><tspan x="409" y="286.085041">90k</tspan></text><text fill="#fff" font-family="PingFangSC-Regular, PingFang SC" font-size="10" opacity=".70073"><tspan x="450" y="286.085041">100k</tspan></text></g></g></g></svg>