<svg height="201" viewBox="0 0 291 201" width="291" xmlns="http://www.w3.org/2000/svg" xmlns:xlink="http://www.w3.org/1999/xlink"><linearGradient id="a" x1="50%" x2="50%" y1="0%" y2="50%"><stop offset="0" stop-color="#1ce15f"/><stop offset="1" stop-color="#1ce15f" stop-opacity="0"/></linearGradient><linearGradient id="b" x1="50%" x2="50%" y1="0%" y2="39.130961%"><stop offset="0" stop-color="#1ce15f"/><stop offset=".985085227" stop-color="#1ce15f" stop-opacity="0"/></linearGradient><path d="m25 69.5h8.5267876l5.5920025 3.337948 3.504505 2.9200143 4.9811555 5.5247842 3.941667 3.4373245 4.9553473 2.076729 4.9411206 2.1541256 3.5385077 1.0535981h5.4535156 1.0703015l6.9785383-4.1648191 1.4893198-1.1196336 4.5103321 2.6445086 4.3690899 3.8257377 3.1085039 3.3756121 3.0586768 3.3052179 2.6259266 1.9148518 2.9621613 1.2188429 2.079398.943875 3.098696-.943875 3.700151-2.3108256 3.494958-3.233454 2.985309-2.2281551 2.068805-1.1385337h2.484292 3.483188l2.939798 1.1385337 2.791494 2.2281551 4.124663 3.7665802h5.476271 4.914442l3.874742.5588565 2.860153 1.2188429 3.908876 2.977042 3.229345 2.436363 3.747624.736329 4.3942.490776 5.238906-1.227105 4.130155-1.236028 2.337165-1.200335 2.90331-2.033167 2.949215 2.033167 4.467567 2.436363 6.404546 2.38679 3.222674.600168h6.347657l2.83779 2.124712 6.395522 4.976499 6.47399 3.331988 3.726438 3.718329 7.519573 8.080332 5.299702 4.732371 2.728838-1.183193 3.137569-2.824913 1.33468-2.099446 1.921368-4.2029 5.484798-10.180991 2.805921 1.254938 2.752629 2.705473 3.292211 2.792046 5.499548.926283 2.435256-.926283 1.298517-.812444 4.38898-3.072614 1.962289-1.612461h4.07018l5.110326.989745 3.283646.622716h5.260685l11.355487 1.093012 9.358998-1.093012-1.501149 150.258092-287.498851-.503484z" fill="url(#a)" fill-opacity=".2" fill-rule="evenodd" stroke="url(#b)" transform="translate(-24 -69)"/></svg>