<?xml version="1.0" encoding="UTF-8"?>
<svg width="65px" height="20px" viewBox="0 0 65 20" version="1.1" xmlns="http://www.w3.org/2000/svg" xmlns:xlink="http://www.w3.org/1999/xlink">
    <title>路径 10备份 4</title>
    <defs>
        <linearGradient x1="50%" y1="1.42108547e-12%" x2="50%" y2="100%" id="linearGradient-1">
            <stop stop-color="#3A088C" offset="0%"></stop>
            <stop stop-color="#00E1FF" offset="100%"></stop>
        </linearGradient>
    </defs>
    <g id="新官网" stroke="none" stroke-width="1" fill="none" fill-rule="evenodd">
        <g id="鼠标触碰" transform="translate(-813.000000, -3088.000000)" fill="url(#linearGradient-1)">
            <g id="编组-16备份" transform="translate(765.000000, 2915.000000)">
                <g id="编组-10" transform="translate(0.000000, 28.500000)">
                    <path d="M71.5,186.585041 C72.3415778,186.516328 72.7735956,186.464557 72.7960533,186.429728 C74.2007818,184.251188 75.5672448,181.251526 76.8954421,177.430742 C78.2554908,173.518332 78.8642241,155.236432 78.7216421,122.585041 L82.6543106,122.585041 C82.8706283,156.294454 83.4186293,174.576354 84.2983136,177.430742 C85.6750359,181.897913 87.0780534,184.8862 88.5073663,186.395604 C88.5490131,186.439584 88.936585,186.50273 89.670082,186.585041 L71.5,186.585041 Z" id="路径-10备份-4" transform="translate(80.585041, 154.585041) rotate(-270.000000) translate(-80.585041, -154.585041) "></path>
                </g>
            </g>
        </g>
    </g>
</svg>