<?xml version="1.0" encoding="UTF-8"?>
<svg width="10px" height="20px" viewBox="0 0 10 20" version="1.1" xmlns="http://www.w3.org/2000/svg" xmlns:xlink="http://www.w3.org/1999/xlink">
    <title>路径 10备份 6</title>
    <defs>
        <linearGradient x1="50%" y1="1.13686838e-11%" x2="50%" y2="100%" id="linearGradient-1">
            <stop stop-color="#3A088C" offset="0%"></stop>
            <stop stop-color="#00E1FF" offset="100%"></stop>
        </linearGradient>
    </defs>
    <g id="新官网" stroke="none" stroke-width="1" fill="none" fill-rule="evenodd">
        <g id="鼠标触碰" transform="translate(-813.000000, -3185.000000)" fill="url(#linearGradient-1)">
            <g id="编组-16备份" transform="translate(765.000000, 2915.000000)">
                <g id="编组-10" transform="translate(0.000000, 28.500000)">
                    <path d="M44,256.085041 C44.8415778,256.075378 45.2735956,256.068098 45.2960533,256.0632 C46.7007818,255.756843 48.0672448,255.335015 49.3954421,254.797718 C50.7554908,254.247535 51.3642241,251.676643 51.2216421,247.085041 L55.1543106,247.085041 C55.3706283,251.825427 55.9186293,254.396319 56.7983136,254.797718 C58.1750359,255.425914 59.5780534,255.846141 61.0073663,256.058401 C61.0490131,256.064586 61.436585,256.073466 62.170082,256.085041 L44,256.085041 Z" id="路径-10备份-6" transform="translate(53.085041, 251.585041) rotate(-270.000000) translate(-53.085041, -251.585041) "></path>
                </g>
            </g>
        </g>
    </g>
</svg>