<?xml version="1.0" encoding="UTF-8"?>
<svg width="291px" height="226px" viewBox="0 0 291 226" version="1.1" xmlns="http://www.w3.org/2000/svg" xmlns:xlink="http://www.w3.org/1999/xlink">
    <title>路径 29</title>
    <defs>
        <linearGradient x1="50%" y1="0%" x2="50%" y2="47.4051176%" id="linearGradient-1">
            <stop stop-color="#DCAE00" offset="0%"></stop>
            <stop stop-color="#DCAE00" stop-opacity="0" offset="100%"></stop>
        </linearGradient>
        <linearGradient x1="50%" y1="17.8775507%" x2="50%" y2="43.7992382%" id="linearGradient-2">
            <stop stop-color="#DCAE00" offset="0%"></stop>
            <stop stop-color="#DCAE00" stop-opacity="0" offset="100%"></stop>
        </linearGradient>
    </defs>
    <g id="新官网" stroke="none" stroke-width="1" fill="none" fill-rule="evenodd" fill-opacity="0.2">
        <g id="鼠标触碰" transform="translate(-213.000000, -3435.000000)" fill="url(#linearGradient-1)" stroke="url(#linearGradient-2)">
            <g id="编组-15备份" transform="translate(189.000000, 3351.000000)">
                <g id="编组-11" transform="translate(0.000000, 40.000000)">
                    <polygon id="路径-29" points="25 47.9071717 32.635438 45.5 34.3202968 46.7035859 36.6036876 49.9925256 40.5856651 53.6685801 42.3464843 55.0508248 45.1025691 55.821351 48.8287519 57.204752 51.2178468 62.3922952 54.0855844 68.3471239 55.5915242 72.6310801 57.026537 76.9894293 60.4438442 81.7918236 64.2816797 87.8369275 68.1803752 91.5522052 71.2888069 95.2483094 73.1818706 96.0729624 77.4191851 95.2483094 82.8646335 95.2483094 88.4085835 95.2483094 91.647442 96.8221792 94.0577337 97.8834769 95.3992672 97.8834769 97.8114207 95.2483094 103.190899 88.2844834 108.400319 84.1475135 113.313999 79.6349069 117.991523 75.18556 122.484403 72.6310801 125.218984 71.6917385 126.641823 71.6917385 128.804475 74.8120145 131.301968 78.1496129 133.96052 82.562102 137.842681 87.2250155 142.026478 91.5522052 146.923712 92.7228514 154.197411 93.3567546 157.907032 93.3567546 164.851167 95.6701745 173.366476 97.8834769 183.841795 102.360794 192.855175 106.668722 201.244492 109.970246 208.86079 113.490827 213.237299 115.887112 220.131161 117.30761 225.468124 119.487682 229.030031 119.487682 232.13607 119.487682 234.625495 117.77557 236.455169 116.580877 238.231778 112.939266 240.620347 109.366666 242.431712 106.668722 245.139294 103.38262 247.074168 101.766101 249.31192 100.934839 250.939883 100.053648 252.134322 100.053648 257.195097 103.977835 264.342805 108.740082 267.055042 109.970246 269.043292 112.045789 272.86401 117.30761 276.316992 121.253339 280.831285 122.571196 282.228367 123.735749 298.613819 123.735749 300.068 124.206275 302.072698 125.476172 314 131.181562 314 268.5 25 269.003484"></polygon>
                </g>
            </g>
        </g>
    </g>
</svg>