<svg height="226" viewBox="0 0 291 226" width="291" xmlns="http://www.w3.org/2000/svg" xmlns:xlink="http://www.w3.org/1999/xlink"><linearGradient id="a"><stop offset="0" stop-color="#dcae00"/><stop offset="1" stop-color="#dcae00" stop-opacity="0"/></linearGradient><linearGradient id="b" x1="50%" x2="50%" xlink:href="#a" y1="0%" y2="47.405118%"/><linearGradient id="c" x1="50%" x2="50%" xlink:href="#a" y1="17.877551%" y2="43.799238%"/><path d="m25 47.9071717 7.635438-2.4071717 1.6848588 1.2035859 2.2833908 3.2889397 3.9819775 3.6760545 1.7608192 1.3822447 2.7560848.7705262 3.7261828 1.383401 2.3890949 5.1875432 2.8677376 5.9548287 1.5059398 4.2839562 1.4350128 4.3583492 3.4173072 4.8023943 3.8378355 6.0451039 3.8986955 3.7152777 3.1084317 3.6961042 1.8930637.824653 4.2373145-.824653h5.4454484 5.54395l3.2388585 1.5738698 2.4102917 1.0612977h1.3415335l2.4121535-2.6351675 5.3794783-6.963826 5.20942-4.1369699 4.91368-4.5126066 4.677524-4.4493469 4.49288-2.5544799 2.734581-.9393416h1.422839l2.162652 3.120276 2.497493 3.3375984 2.658552 4.4124891 3.882161 4.6629135 4.183797 4.3271897 4.897234 1.1706462 7.273699.6339032h3.709621l6.944135 2.3134199 8.515309 2.2133024 10.475319 4.4773171 9.01338 4.307928 8.389317 3.301524 7.616298 3.520581 4.376509 2.396285 6.893862 1.420498 5.336963 2.180072h3.561907 3.106039l2.489425-1.712112 1.829674-1.194693 1.776609-3.641611 2.388569-3.5726 1.811365-2.697944 2.707582-3.286102 1.934874-1.616519 2.237752-.831262 1.627963-.881191h1.194439l5.060775 3.924187 7.147708 4.762247 2.712237 1.230164 1.98825 2.075543 3.820718 5.261821 3.452982 3.945729 4.514293 1.317857 1.397082 1.164553h16.385452l1.454181.470526 2.004698 1.269897 11.927302 5.70539v137.318438l-289 .503484z" fill="url(#b)" fill-opacity=".2" fill-rule="evenodd" stroke="url(#c)" transform="translate(-24 -44)"/></svg>