<?xml version="1.0" encoding="UTF-8"?>
<svg width="291px" height="184px" viewBox="0 0 291 184" version="1.1" xmlns="http://www.w3.org/2000/svg" xmlns:xlink="http://www.w3.org/1999/xlink">
    <title>路径 25</title>
    <defs>
        <linearGradient x1="50%" y1="46.2358285%" x2="50%" y2="3.061617e-15%" id="linearGradient-1">
            <stop stop-color="#B65FD5" stop-opacity="0" offset="0%"></stop>
            <stop stop-color="#B65FD5" offset="100%"></stop>
        </linearGradient>
        <linearGradient x1="50%" y1="9.07380681%" x2="50%" y2="46.8246597%" id="linearGradient-2">
            <stop stop-color="#B65FD5" offset="0%"></stop>
            <stop stop-color="#B65FD5" stop-opacity="0" offset="100%"></stop>
        </linearGradient>
    </defs>
    <g id="新官网" stroke="none" stroke-width="1" fill="none" fill-rule="evenodd" fill-opacity="0.2">
        <g id="鼠标触碰" transform="translate(-213.000000, -3476.000000)" fill="url(#linearGradient-1)" stroke="url(#linearGradient-2)">
            <g id="编组-15备份" transform="translate(189.000000, 3351.000000)">
                <g id="编组-11" transform="translate(0.000000, 40.000000)">
                    <polygon id="路径-25" points="25 86.5 32.9184553 93.4888591 40.5978169 87.6973749 45.6472262 92.7222471 50.5348431 97.0364821 54.8504083 99.4715617 56.8472239 100.24617 65.0206302 100.24617 68.7241083 98.8436699 73.3987535 96.4996799 78.5905567 94.2266145 81.8751079 92.7222471 85.9521118 91.4991446 87.6047058 90.9991954 94.8193269 95.4994338 97.5611306 94.942119 104.62469 92.7222471 110.357177 92.088445 119.182294 92.088445 124.631644 94.2266145 130.38064 97.7116569 132.852928 99.4715617 136.355816 100.905004 141.649978 100.905004 147.852983 102.70211 157.690128 102.70211 165.508168 96.4996799 173.705926 96.4996799 180.828507 90.3229775 188.563588 90.3229775 192.57538 93.4888591 197.174082 97.7116569 202.222253 100.24617 207.738879 102.232556 211.676791 103.476371 219.842768 109.581801 226.107272 110.318513 229.585809 110.318513 233.884039 108.96712 239.185217 108.112548 242.88498 108.112548 246.09235 109.581801 250.538752 113.982258 255.167171 117.857038 259.1348 120.62901 265.51652 120.62901 275.227368 121.398055 278.033841 123.455218 282.285975 125.357319 289.627306 125.357319 294.02872 123.455218 298.298471 121.398055 306.76038 121.398055 310.656605 123.455218 314 125.357319 314 268 25 267.496516"></polygon>
                </g>
            </g>
        </g>
    </g>
</svg>