<svg height="184" viewBox="0 0 291 184" width="291" xmlns="http://www.w3.org/2000/svg" xmlns:xlink="http://www.w3.org/1999/xlink"><linearGradient id="a" x1="50%" x2="50%" y1="46.235829%" y2="0%"><stop offset="0" stop-color="#b65fd5" stop-opacity="0"/><stop offset="1" stop-color="#b65fd5"/></linearGradient><linearGradient id="b" x1="50%" x2="50%" y1="9.073807%" y2="46.82466%"><stop offset="0" stop-color="#b65fd5"/><stop offset="1" stop-color="#b65fd5" stop-opacity="0"/></linearGradient><path d="m25 86.5 7.9184553 6.9888591 7.6793616-5.7914842 5.0494093 5.0248722 4.8876169 4.314235 4.3155652 2.4350796 1.9968156.7746083h8.1734063l3.7034781-1.4025001 4.6746452-2.34399 5.1918032-2.2730654 3.2845512-1.5043674 4.0770039-1.2231025 1.652594-.4999492 7.2146211 4.5002384 2.7418037-.5573148 7.0635594-2.2198719 5.732487-.6338021h8.825117l5.44935 2.1381695 5.748996 3.4850424 2.472288 1.7599048 3.502888 1.4334423h5.294162l6.203005 1.797106h9.837145l7.81804-6.2024301h8.197758l7.122581-6.1767024h7.735081l4.011792 3.1658816 4.598702 4.2227978 5.048171 2.5345131 5.516626 1.986386 3.937912 1.243815 8.165977 6.10543 6.264504.736712h3.478537l4.29823-1.351393 5.301178-.854572h3.699763l3.20737 1.469253 4.446402 4.400457 4.628419 3.87478 3.967629 2.771972h6.38172l9.710848.769045 2.806473 2.057163 4.252134 1.902101h7.341331l4.401414-1.902101 4.269751-2.057163h8.461909l3.896225 2.057163 3.343395 1.902101v142.642681l-289-.503484z" fill="url(#a)" fill-opacity=".2" fill-rule="evenodd" stroke="url(#b)" transform="translate(-24 -85)"/></svg>