<svg height="324" viewBox="0 0 578 324" width="578" xmlns="http://www.w3.org/2000/svg"><g fill="none" fill-rule="evenodd"><path d="m513 0c7.731986 0 14 6.2680135 14 14v97c28.166522 0 51 22.833478 51 51s-22.833478 51-51 51v97c0 7.731986-6.268014 14-14 14h-499c-7.7319865 0-14-6.268014-14-14v-296c0-7.7319865 6.2680135-14 14-14z" fill="#1c142c"/><g transform="translate(24 5)"><text fill="#fff" font-family="PingFangSC-Regular, PingFang SC" font-size="15" opacity=".696591"><tspan x="24" y="16">Declines in Labor Share</tspan></text><g transform="translate(0 29)"><text fill="#fff" font-family="PingFangSC-Regular, PingFang SC" font-size="10" opacity=".703334"><tspan x="0" y="62.5">0.65</tspan></text><text fill="#fff" font-family="PingFangSC-Regular, PingFang SC" font-size="10" opacity=".703334"><tspan x="0" y="110.5">0.60</tspan></text><text fill="#fff" font-family="PingFangSC-Regular, PingFang SC" font-size="10" opacity=".703334"><tspan x="0" y="158.5">0.55</tspan></text><text fill="#fff" font-family="PingFangSC-Regular, PingFang SC" font-size="10" opacity=".703334"><tspan x="6" y="207.5">0.5</tspan></text><text fill="#fff" font-family="PingFangSC-Regular, PingFang SC" font-size="10" opacity=".703334"><tspan x="0" y="255.5">0.45</tspan></text><text fill="#fff" font-family="PingFangSC-Regular, PingFang SC" font-size="10" opacity=".703334"><tspan x="15" y="272.5">0</tspan></text><path d="m25.5 268-.5-267.517986" opacity=".395206" stroke="#353535" stroke-dasharray="2" stroke-linecap="round" stroke-linejoin="round"/><path d="m108 268-.5-222.598921" opacity=".395206" stroke="#353535" stroke-dasharray="2" stroke-linecap="round" stroke-linejoin="round"/><path d="m67 268-.5-222.598921" opacity=".395206" stroke="#353535" stroke-dasharray="2" stroke-linecap="round" stroke-linejoin="round"/><path d="m149 268-.5-222.598921" opacity=".395206" stroke="#353535" stroke-dasharray="2" stroke-linecap="round" stroke-linejoin="round"/><path d="m190 268-.5-222.598921" opacity=".395206" stroke="#353535" stroke-dasharray="2" stroke-linecap="round" stroke-linejoin="round"/><path d="m231 268-.5-222.598921" opacity=".395206" stroke="#353535" stroke-dasharray="2" stroke-linecap="round" stroke-linejoin="round"/><path d="m273 268-.5-222.598921" opacity=".395206" stroke="#353535" stroke-dasharray="2" stroke-linecap="round" stroke-linejoin="round"/><path d="m314 268-.5-222.598921" opacity=".395206" stroke="#353535" stroke-dasharray="2" stroke-linecap="round" stroke-linejoin="round"/><path d="m25.5 268.5 289 .5" stroke="#353535" stroke-dasharray="2" stroke-linecap="round" stroke-linejoin="round"/><g fill="#fff" font-family="PingFangSC-Regular, PingFang SC" font-size="10"><text opacity=".703334"><tspan x="0" y="13.5">0.70</tspan></text><text opacity=".70073"><tspan x="61" y="286">85</tspan></text><text opacity=".70073"><tspan x="20" y="286">1980</tspan></text><text opacity=".70073"><tspan x="102" y="286">90</tspan></text><text opacity=".70073"><tspan x="143" y="286">95</tspan></text><text opacity=".70073"><tspan x="178" y="286">2000</tspan></text><text opacity=".70073"><tspan x="225" y="286">05</tspan></text><text opacity=".70073"><tspan x="268" y="286">10</tspan></text><text opacity=".70073"><tspan x="304" y="286">2017</tspan></text></g></g></g><g transform="translate(76 7)"><text fill="#fff" font-family="PingFangSC-Regular, PingFang SC" font-size="10" opacity=".295991"><tspan x="357" y="11">Source:Mckinsey</tspan></text><g transform="translate(0 36)"><path d="m193 22h11v2h-11z" fill="#5e18fe"/><path d="m80 22h11v2h-11z" fill="#0ba3c2"/><path d="m0 22h11v2h-11z" fill="#b75fd5"/><path d="m193 5h11v2h-11z" fill="#26bd54"/><path d="m80 5h11v2h-11z" fill="#fff"/><path d="m0 5h11v2h-11z" fill="#dcae00"/><g fill="#fff" font-family="PingFangSC-Regular, PingFang SC" font-size="8"><text><tspan x="18" y="8">France</tspan></text><text><tspan x="98" y="8">United Kingdom</tspan></text><text><tspan x="211" y="8">United States</tspan></text><text><tspan x="18" y="25">Germany</tspan></text><text><tspan x="98" y="25">Spain</tspan></text><text><tspan x="211" y="25">Sweden</tspan></text></g></g><g transform="translate(304 33)"><g fill="#fff" font-family="PingFangSC-Regular, PingFang SC" font-size="10"><text><tspan x="0" y="11">Change in labor share,</tspan> <tspan x="0" y="25">Percentage points</tspan></text><text><tspan x="0" y="50">1980vs2017</tspan></text><text><tspan x="0" y="75">-7.7</tspan></text><text><tspan x="0" y="106">-1.9</tspan></text><text><tspan x="0" y="135">-5.8</tspan></text><text><tspan x="0" y="166">-7.3</tspan></text><text><tspan x="0" y="195">-12.5</tspan></text><text><tspan x="0" y="226">-6.2</tspan></text><text><tspan x="75" y="75">+2.2</tspan></text><text><tspan x="75" y="106">+1.7</tspan></text><text><tspan x="75" y="135">-5.3</tspan></text><text><tspan x="75" y="166">-2.5</tspan></text><text><tspan x="75" y="195">-4.5</tspan></text><text><tspan x="75" y="226">+1.1</tspan></text><text><tspan x="75" y="50">2000vs2017</tspan></text></g><path d="m.5 32.5h131" stroke="#979797" stroke-linecap="square"/></g></g></g></svg>