<svg height="164" viewBox="0 0 291 164" width="291" xmlns="http://www.w3.org/2000/svg" xmlns:xlink="http://www.w3.org/1999/xlink"><linearGradient id="a" x1="50%" x2="50%" y1="65.92254%" y2="0%"><stop offset="0" stop-color="#00d1f2" stop-opacity="0"/><stop offset="1" stop-color="#00a4e1"/></linearGradient><linearGradient id="b" x1="50%" x2="50%" y1="0%" y2="57.148332%"><stop offset="0" stop-color="#00d0f2"/><stop offset="1" stop-color="#00a3e1" stop-opacity="0"/></linearGradient><path d="m314 269h-289v-161.5c4.4277898 3.71908 6.8528553 5.839456 7.2751964 6.361126.6335117.782506 5.1797597 7.718071 5.8313296 8.497467.4343799.519597 1.5436703 2.310197 3.3278712 5.371798l4.6980844 4.362563 2.0857316 2.08869h4.2562367l2.8183779-.773002h1.3462615l3.9914063 2.224688 3.5164124 2.095718 7.6305155-1.382382c4.380634 4.408779 6.570951 6.613169 6.570951 6.613169s.2610239.325945.7830718.977837l2.1553302.780384 5.6267945-.369278 2.2938195-.979273 3.7411538-3.451035 5.5852477-4.28514 5.373383-3.88367 5.264536-2.240272 1.215304-.449654 6.985447-.272703 1.605018.272703 5.342527 5.12191 2.52585 2.51072 1.913095 3.550275 2.212913 4.475417 2.467538 4.898211.892163 1.568559h7.900205l2.905602 3.585132 2.699568 2.4123 1.747638 1.828551 1.709978-.514242 5.33378-4.333734 3.845142-4.546566 3.145407-3.758391 3.306492-4.229779 3.492845-3.499015 2.892482-2.822586 3.589059-1.897854 2.128604-1.315688 2.126417-.886241 1.329011-2.146979 1.207287-2.25893 2.677702-3.210933 1.675598-2.486783 11.197252 4.352574 3.681898.681936 3.599296-1.310227 5.459639-2.069753 7.757055 4.043186 3.835251-2.585964 3.543989-1.856247 4.777274-2.606649 3.374115-1.893965 5.911437 2.812004h2.263656l2.007231-2.812004 1.603199-3.359067 1.793184-2.761086 2.060742-3.458782h4.025236 4.089881l7.176326 7.509182 15.905212.539791 7.645362 6.429601 11.389391-.399025 7.403662-1.68861 5.455329-1.329322z" fill="url(#a)" fill-opacity=".2" fill-rule="evenodd" stroke="url(#b)" transform="translate(-24 -106)"/></svg>