<svg height="122" viewBox="0 0 291 122" width="291" xmlns="http://www.w3.org/2000/svg" xmlns:xlink="http://www.w3.org/1999/xlink"><linearGradient id="a" x1="50%" x2="50%" y1="0%" y2="84.014852%"><stop offset="0" stop-color="#5e18fe"/><stop offset="1" stop-color="#5e18fe" stop-opacity="0"/></linearGradient><linearGradient id="b" x1="50%" x2="50%" y1="32.837347%" y2="65.389866%"><stop offset="0" stop-color="#5e18fe"/><stop offset="1" stop-color="#b0c2e6" stop-opacity="0"/></linearGradient><path d="m25 149.5c1.1120718.437828 2.07348.85336 2.8842247 1.246594 1.2161169.589852 3.2612111 1.116131 3.8907227 1.63854.6295117.522408 3.9565562 3.14385 4.5258025 3.887108.5692462.743257 4.020752 3.717118 4.5421789 4.585864s1.7067562 3.318539 2.19412 4.067602c.4873639.749062 3.4845862 7.078777 3.9300263 7.659784s5.6397303 7.643199 6.1539516 8.208174c.5142213.564976 2.3284071 3.763555 3.0928609 3.763555s2.7122717-.367069 3.4731227-.81236 3.2680892-1.710128 3.9575388-1.710128c.6894495 0 3.9362493.716722 4.6627097 1.213425.7264605.496703 6.1303502 2.065029 7.9940575 2.475508 1.8637074.41048 5.0812068 1.122988 5.6268079 1.122988s4.0368293 1.887718 4.4035887 1.887718c.3667595 0 1.9829351.553922 3.6158192-1.101401 1.0885893-1.103548 2.5387812-1.945281 4.3505757-2.525198 1.4722634-1.543524 2.3554703-2.567871 2.6496204-3.07304.4412253-.757755 2.9386137-3.732601 3.5440348-4.690212.605421-.957612 2.119903-2.6951 2.119903-2.6951s.953616-.406998 1.377514 0c.282598.271332 1.505061 1.463429 3.667388 3.57629 2.086665 1.71197 3.129998 2.567955 3.129998 2.567955s2.016107-.09446 3.748527-.785356c1.732421-.690897 3.702484-1.078963 3.702484-.939831s2.8688 2.221931 3.636842 2.966254c.768043.744322 4.485775 5.580011 5.852619 6.139825s5.858874 3.0204 6.621465 3.945878 3.39295 6.017507 4.013501 7.080144c.62055 1.062636 3.275155 4.819213 3.275155 4.819213s.826319.706534 2.097081-1.882395 4.968809-7.387023 5.400507-7.794556 7.608351-.534643 8.328543 0c.720191.534642 2.549252 3.87659 2.883545 4.593741s2.540179 5.801051 2.843741 6.451448c.303561.650396 1.550423 3.347096 1.854146 3.743085.303722.395988 2.350824.678603 3.740101-.205353s4.160728-.602976 4.637545-1.186057c.476817-.583082 2.940992-4.317036 3.347571-4.865234.406578-.548197 6.034734-5.666203 6.661394-6.412122s4.223216-3.817681 4.70181-4.079798c.478593-.262116 1.364734-.262116 1.980091-.262116.615358 0 4.936747.68454 5.810454.864002.582472.119642 3.8682 1.588723 9.857185 4.407244 3.751243 1.977944 5.805395 3.064345 6.162456 3.259205.535592.29229 7.760997.886954 8.208911.886954.447915 0 5.089335 3.736544 6.094801 4.117407s4.181557-.522178 5.321042-1.078816c1.139485-.556639 7.291607-5.146077 8.402028-5.885455s7.796359-7.623662 8.048573-8.191345 2.04484-3.248611 2.459815-3.450795c.414975-.202183 1.333409.75177 1.866741 1.685535.533331.933766 6.096415 9.443291 6.414993 9.443291s1.746446-.494917 2.930497-1.397678c1.18405-.90276 5.903621-4.737279 6.759083-5.501322.855462-.764042 3.811309-5.038566 4.461705-5.880004.650397-.841438 2.114272-1.897137 2.716228-2.150501s5.335736-1.213425 6.055725-1.213425c.71999 0 5.929457 1.462866 6.447772 1.710128.518314.247262 4.43264 2.786709 5.501887 3.88811 1.069246 1.101401 3.501935 3.628114 4.0456 3.908822.362444.187138 5.624842.187138 15.787195 0l.534075 77.458207h-289z" fill="url(#a)" fill-opacity=".43" fill-rule="evenodd" stroke="url(#b)" transform="translate(-24 -148)"/></svg>