<?xml version="1.0" encoding="UTF-8"?>
<svg width="291px" height="201px" viewBox="0 0 291 201" version="1.1" xmlns="http://www.w3.org/2000/svg" xmlns:xlink="http://www.w3.org/1999/xlink">
    <title>路径 27</title>
    <defs>
        <linearGradient x1="50%" y1="0%" x2="50%" y2="50%" id="linearGradient-1">
            <stop stop-color="#1CE15F" offset="0%"></stop>
            <stop stop-color="#1CE15F" stop-opacity="0" offset="100%"></stop>
        </linearGradient>
        <linearGradient x1="50%" y1="0%" x2="50%" y2="39.1309607%" id="linearGradient-2">
            <stop stop-color="#1CE15F" offset="0%"></stop>
            <stop stop-color="#1CE15F" stop-opacity="0" offset="98.5085227%"></stop>
        </linearGradient>
    </defs>
    <g id="新官网" stroke="none" stroke-width="1" fill="none" fill-rule="evenodd" fill-opacity="0.2">
        <g id="鼠标触碰" transform="translate(-213.000000, -3460.000000)" fill="url(#linearGradient-1)" stroke="url(#linearGradient-2)">
            <g id="编组-15备份" transform="translate(189.000000, 3351.000000)">
                <g id="编组-11" transform="translate(0.000000, 40.000000)">
                    <polygon id="路径-27" points="25 69.5 33.5267876 69.5 39.1187901 72.837948 42.6232951 75.7579623 47.6044506 81.2827465 51.5461176 84.720071 56.5014649 86.7968 61.4425855 88.9509256 64.9810932 90.0045237 70.4346088 90.0045237 71.5049103 90.0045237 78.4834486 85.8397046 79.9727684 84.720071 84.4831005 87.3645796 88.8521904 91.1903173 91.9606943 94.5659294 95.0193711 97.8711473 97.6452977 99.7859991 100.607459 101.004842 102.686857 101.948717 105.785553 101.004842 109.485704 98.6940164 112.980662 95.4605624 115.965971 93.2324073 118.034776 92.0938736 120.519068 92.0938736 124.002256 92.0938736 126.942054 93.2324073 129.733548 95.4605624 133.858211 99.2271426 139.334482 99.2271426 144.248924 99.2271426 148.123666 99.7859991 150.983819 101.004842 154.892695 103.981884 158.12204 106.418247 161.869664 107.154576 166.263864 107.645352 171.50277 106.418247 175.632925 105.182219 177.97009 103.981884 180.8734 101.948717 183.822615 103.981884 188.290182 106.418247 194.694728 108.805037 197.917402 109.405205 204.265059 109.405205 207.102849 111.529917 213.498371 116.506416 219.972361 119.838404 223.698799 123.556733 231.218372 131.637065 236.518074 136.369436 239.246912 135.186243 242.384481 132.36133 243.719161 130.261884 245.640529 126.058984 251.125327 115.877993 253.931248 117.132931 256.683877 119.838404 259.976088 122.63045 265.475636 123.556733 267.910892 122.63045 269.209409 121.818006 273.598389 118.745392 275.560678 117.132931 279.630858 117.132931 284.741184 118.122676 288.02483 118.745392 293.285515 118.745392 304.641002 119.838404 314 118.745392 312.498851 269.003484 25 268.5"></polygon>
                </g>
            </g>
        </g>
    </g>
</svg>