<?xml version="1.0" encoding="UTF-8"?>
<svg width="291px" height="219px" viewBox="0 0 291 219" version="1.1" xmlns="http://www.w3.org/2000/svg" xmlns:xlink="http://www.w3.org/1999/xlink">
    <title>路径 28</title>
    <defs>
        <linearGradient x1="50%" y1="0%" x2="50%" y2="48.2689761%" id="linearGradient-1">
            <stop stop-color="#FFFFFF" offset="0%"></stop>
            <stop stop-color="#FFFFFF" stop-opacity="0" offset="100%"></stop>
        </linearGradient>
        <linearGradient x1="50%" y1="31.709374%" x2="50%" y2="50%" id="linearGradient-2">
            <stop stop-color="#FFFEFE" offset="0%"></stop>
            <stop stop-color="#FFFFFF" stop-opacity="0" offset="100%"></stop>
        </linearGradient>
    </defs>
    <g id="新官网" stroke="none" stroke-width="1" fill="none" fill-rule="evenodd" fill-opacity="0.2">
        <g id="鼠标触碰" transform="translate(-213.000000, -3442.000000)" fill="url(#linearGradient-1)" stroke="url(#linearGradient-2)">
            <g id="编组-15备份" transform="translate(189.000000, 3351.000000)">
                <g id="编组-11" transform="translate(0.000000, 40.000000)">
                    <polygon id="路径-28" points="25 52.9614815 30.5657329 51.8466494 34.1324568 51.5 36.5608907 52.2307407 41.0214735 54.0324548 43.6081775 55.5414921 50.3802397 61.131514 56.3400835 65.7367548 62.4386489 70.7343089 65.2208465 73.9940305 67.2857617 76.7131137 69.3799009 79.7681094 71.6223795 82.7825962 73.61294 84.7457207 76.1979682 85.9771918 78.1289709 86.7456149 79.9001665 87.984253 82.8310735 91.8163967 86.5077471 96.7557838 89.8973598 100.110754 92.9577402 103.048585 94.4733184 104.297506 96.0577024 104.747778 98.5687458 104.747778 103.2124 103.048585 107.300429 102.636017 114.306788 102.636017 121.396749 103.459906 126.705157 103.459906 129.929044 105.806308 133.549859 108.900566 134.650013 110.077506 141.300505 110.077506 146.126532 111.104563 150.926294 112.901912 158.131672 116.184444 162.76053 118.353166 165.560114 119.708034 168.447 119.708034 172.513573 118.815084 174.991693 117.722473 179.437069 118.353166 184.672972 118.815084 191.554296 118.353166 197.372459 115.768074 203.725902 115.768074 208.490522 116.184444 212.662153 118.353166 217.87993 118.815084 226.135151 118.353166 229.972002 119.283045 236.055401 122.089646 240.082022 122.089646 243.133524 120.897438 245.296099 118.353166 250.523124 110.077506 251.810459 108.900566 267.317299 108.900566 271.458597 107.197633 277.22682 104.297506 281.621516 103.048585 286.192666 102.084473 291.765199 102.636017 297.103941 105.14757 299.239512 105.806308 314 104.747778 314 269.003484 25 268.5"></polygon>
                </g>
            </g>
        </g>
    </g>
</svg>