<svg height="219" viewBox="0 0 291 219" width="291" xmlns="http://www.w3.org/2000/svg" xmlns:xlink="http://www.w3.org/1999/xlink"><linearGradient id="a" x1="50%" x2="50%" y1="0%" y2="48.268976%"><stop offset="0" stop-color="#fff"/><stop offset="1" stop-color="#fff" stop-opacity="0"/></linearGradient><linearGradient id="b" x1="50%" x2="50%" y1="31.709374%" y2="50%"><stop offset="0" stop-color="#fffefe"/><stop offset="1" stop-color="#fff" stop-opacity="0"/></linearGradient><path d="m25 52.9614815 5.5657329-1.1148321 3.5667239-.3466494 2.4284339.7307407 4.4605828 1.8017141 2.586704 1.5090373 6.7720622 5.5900219 5.9598438 4.6052408 6.0985654 4.9975541 2.7821976 3.2597216 2.0649152 2.7190832 2.0941392 3.0549957 2.2424786 3.0144868 1.9905605 1.9631245 2.5850282 1.2314711 1.9310027.7684231 1.7711956 1.2386381 2.930907 3.8321437 3.6766736 4.9393871 3.3896127 3.3549702 3.0603804 2.937831 1.5155782 1.248921 1.584384.450272h2.5110434l4.6436542-1.699193 4.088029-.412568h7.006359l7.089961.823889h5.308408l3.223887 2.346402 3.620815 3.094258 1.100154 1.17694h6.650492l4.826027 1.027057 4.799762 1.797349 7.205378 3.282532 4.628858 2.168722 2.799584 1.354868h2.886886l4.066573-.89295 2.47812-1.092611 4.445376.630693 5.235903.461918 6.881324-.461918 5.818163-2.585092h6.353443l4.76462.41637 4.171631 2.168722 5.217777.461918 8.255221-.461918 3.836851.929879 6.083399 2.806601h4.026621l3.051502-1.192208 2.162575-2.544272 5.227025-8.27566 1.287335-1.17694h15.50684l4.141298-1.702933 5.768223-2.900127 4.394696-1.248921 4.57115-.964112 5.572533.551544 5.338742 2.511553 2.135571.658738 14.760488-1.05853v164.255706l-289-.503484z" fill="url(#a)" fill-opacity=".2" fill-rule="evenodd" stroke="url(#b)" transform="translate(-24 -51)"/></svg>